<?xml version="1.0" encoding="UTF-8" standalone="no"?><svg xmlns="http://www.w3.org/2000/svg" xmlns:xlink="http://www.w3.org/1999/xlink" contentStyleType="text/css" height="2666px" preserveAspectRatio="none" style="width:1113px;height:2666px;background:#FFFFFF;" version="1.1" viewBox="0 0 1113 2666" width="1113px" zoomAndPan="magnify"><defs/><g><ellipse cx="264.125" cy="48.6982" fill="#222222" rx="10" ry="10" style="stroke:#222222;stroke-width:1.0;"/><polygon fill="#F1F1F1" points="185.625,78.6982,342.625,78.6982,354.625,90.6982,342.625,102.6982,185.625,102.6982,173.625,90.6982,185.625,78.6982" style="stroke:#181818;stroke-width:0.5;"/><text fill="#000000" font-family="sans-serif" font-size="11" lengthAdjust="spacing" textLength="157" x="185.625" y="94.5063">more than 3 CLI arguments</text><rect fill="#F1F1F1" height="33.9688" rx="12.5" ry="12.5" style="stroke:#181818;stroke-width:0.5;" width="145" x="21" y="112.6982"/><text fill="#000000" font-family="sans-serif" font-size="12" lengthAdjust="spacing" textLength="125" x="31" y="133.8369">print error message</text><ellipse cx="93.5" cy="192.667" fill="none" rx="11" ry="11" style="stroke:#222222;stroke-width:1.0;"/><ellipse cx="93.5" cy="192.667" fill="#222222" rx="6" ry="6" style="stroke:#111111;stroke-width:1.0;"/><polygon fill="#F1F1F1" points="387.75,112.6982,481.75,112.6982,493.75,124.6982,481.75,136.6982,387.75,136.6982,375.75,124.6982,387.75,112.6982" style="stroke:#181818;stroke-width:0.5;"/><text fill="#000000" font-family="sans-serif" font-size="11" lengthAdjust="spacing" textLength="94" x="387.75" y="128.5063">no CLI argument</text><rect fill="#F1F1F1" height="33.9688" rx="12.5" ry="12.5" style="stroke:#181818;stroke-width:0.5;" width="233" x="196" y="146.6982"/><text fill="#000000" font-family="sans-serif" font-size="12" lengthAdjust="spacing" textLength="213" x="206" y="167.8369">use default filename for config file</text><rect fill="#F1F1F1" height="33.9688" rx="12.5" ry="12.5" style="stroke:#181818;stroke-width:0.5;" width="216" x="449" y="146.6982"/><text fill="#000000" font-family="sans-serif" font-size="12" lengthAdjust="spacing" textLength="196" x="459" y="167.8369">get filename from CLI argument</text><polygon fill="#F1F1F1" points="434.75,186.667,446.75,198.667,434.75,210.667,422.75,198.667,434.75,186.667" style="stroke:#181818;stroke-width:0.5;"/><polygon fill="none" points="174.625,220.667,339.625,220.667,346.625,242.9639,353.625,242.9639,353.625,448.8701,174.625,448.8701,174.625,220.667" style="stroke:#000000;stroke-width:1.5;"/><line style="stroke:#000000;stroke-width:1.5;" x1="174.625" x2="346.625" y1="242.9639" y2="242.9639"/><text fill="#000000" font-family="sans-serif" font-size="14" lengthAdjust="spacing" textLength="159" x="178.625" y="235.6621">Renderer::instantiation</text><rect fill="#F1F1F1" height="33.9688" rx="12.5" ry="12.5" style="stroke:#181818;stroke-width:0.5;" width="78" x="225.125" y="256.9639"/><text fill="#000000" font-family="sans-serif" font-size="12" lengthAdjust="spacing" textLength="58" x="235.125" y="278.1025">SDL_Init()</text><rect fill="#F1F1F1" height="33.9688" rx="12.5" ry="12.5" style="stroke:#181818;stroke-width:0.5;" width="148" x="190.125" y="325.9326"/><text fill="#000000" font-family="sans-serif" font-size="12" lengthAdjust="spacing" textLength="128" x="200.125" y="347.0713">SDL_CreateWindow()</text><rect fill="#F1F1F1" height="33.9688" rx="12.5" ry="12.5" style="stroke:#181818;stroke-width:0.5;" width="159" x="184.625" y="394.9014"/><text fill="#000000" font-family="sans-serif" font-size="12" lengthAdjust="spacing" textLength="139" x="194.625" y="416.04">SDL_CreateRenderer()</text><polygon fill="none" points="48.375,458.8701,189.375,458.8701,196.375,481.167,469.375,481.167,469.375,1134.5732,48.375,1134.5732,48.375,458.8701" style="stroke:#000000;stroke-width:1.5;"/><line style="stroke:#000000;stroke-width:1.5;" x1="48.375" x2="196.375" y1="481.167" y2="481.167"/><text fill="#000000" font-family="sans-serif" font-size="14" lengthAdjust="spacing" textLength="135" x="52.375" y="473.8652">Game::instantiation</text><polygon fill="none" points="58.375,495.167,199.375,495.167,206.375,517.4639,459.375,517.4639,459.375,976.6357,58.375,976.6357,58.375,495.167" style="stroke:#000000;stroke-width:1.5;"/><line style="stroke:#000000;stroke-width:1.5;" x1="58.375" x2="206.375" y1="517.4639" y2="517.4639"/><text fill="#000000" font-family="sans-serif" font-size="14" lengthAdjust="spacing" textLength="135" x="62.375" y="510.1621">Player::instantiation</text><rect fill="#F1F1F1" height="33.9688" rx="12.5" ry="12.5" style="stroke:#181818;stroke-width:0.5;" width="103" x="212.625" y="531.4639"/><text fill="#000000" font-family="sans-serif" font-size="12" lengthAdjust="spacing" textLength="83" x="222.625" y="552.6025">create Player</text><polygon fill="none" points="68.375,600.4326,211.375,600.4326,218.375,622.7295,449.375,622.7295,449.375,823.667,68.375,823.667,68.375,600.4326" style="stroke:#000000;stroke-width:1.5;"/><line style="stroke:#000000;stroke-width:1.5;" x1="68.375" x2="218.375" y1="622.7295" y2="622.7295"/><text fill="#000000" font-family="sans-serif" font-size="14" lengthAdjust="spacing" textLength="137" x="72.375" y="615.4277">Snake::instantiation</text><rect fill="#F1F1F1" height="33.9688" rx="12.5" ry="12.5" style="stroke:#181818;stroke-width:0.5;" width="209" x="159.625" y="636.7295"/><text fill="#000000" font-family="sans-serif" font-size="12" lengthAdjust="spacing" textLength="189" x="169.625" y="657.8682">place head of snake randomly</text><polygon fill="#F1F1F1" points="229.125,705.6982,299.125,705.6982,311.125,717.6982,299.125,729.6982,229.125,729.6982,217.125,717.6982,229.125,705.6982" style="stroke:#181818;stroke-width:0.5;"/><text fill="#000000" font-family="sans-serif" font-size="11" lengthAdjust="spacing" textLength="70" x="229.125" y="721.5063">virtualPlayer</text><rect fill="#F1F1F1" height="33.9688" rx="12.5" ry="12.5" style="stroke:#181818;stroke-width:0.5;" width="171" x="88.375" y="739.6982"/><text fill="#000000" font-family="sans-serif" font-size="12" lengthAdjust="spacing" textLength="151" x="98.375" y="760.8369">change randomly colour</text><rect fill="#F1F1F1" height="33.9688" rx="12.5" ry="12.5" style="stroke:#181818;stroke-width:0.5;" width="150" x="279.375" y="739.6982"/><text fill="#000000" font-family="sans-serif" font-size="12" lengthAdjust="spacing" textLength="130" x="289.375" y="760.8369">keep white as colour</text><polygon fill="#F1F1F1" points="264.125,779.667,276.125,791.667,264.125,803.667,252.125,791.667,264.125,779.667" style="stroke:#181818;stroke-width:0.5;"/><polygon fill="#F1F1F1" points="233.125,858.667,295.125,858.667,307.125,870.667,295.125,882.667,233.125,882.667,221.125,870.667,233.125,858.667" style="stroke:#181818;stroke-width:0.5;"/><text fill="#000000" font-family="sans-serif" font-size="11" lengthAdjust="spacing" textLength="62" x="233.125" y="874.4751">demoMode</text><rect fill="#F1F1F1" height="33.9688" rx="12.5" ry="12.5" style="stroke:#181818;stroke-width:0.5;" width="166" x="98.125" y="892.667"/><text fill="#000000" font-family="sans-serif" font-size="12" lengthAdjust="spacing" textLength="146" x="108.125" y="913.8057">create VirtualController</text><rect fill="#F1F1F1" height="33.9688" rx="12.5" ry="12.5" style="stroke:#181818;stroke-width:0.5;" width="126" x="284.125" y="892.667"/><text fill="#000000" font-family="sans-serif" font-size="12" lengthAdjust="spacing" textLength="106" x="294.125" y="913.8057">create Controller</text><polygon fill="#F1F1F1" points="264.125,932.6357,276.125,944.6357,264.125,956.6357,252.125,944.6357,264.125,932.6357" style="stroke:#181818;stroke-width:0.5;"/><rect fill="#F1F1F1" height="33.9688" rx="12.5" ry="12.5" style="stroke:#181818;stroke-width:0.5;" width="190" x="169.125" y="1011.6357"/><text fill="#000000" font-family="sans-serif" font-size="12" lengthAdjust="spacing" textLength="170" x="179.125" y="1032.7744">add player to list of players</text><rect fill="#F1F1F1" height="33.9688" rx="12.5" ry="12.5" style="stroke:#181818;stroke-width:0.5;" width="95" x="216.625" y="1080.6045"/><text fill="#000000" font-family="sans-serif" font-size="12" lengthAdjust="spacing" textLength="75" x="226.625" y="1101.7432">PlaceFood()</text><rect fill="#F1F1F1" height="33.9688" rx="12.5" ry="12.5" style="stroke:#181818;stroke-width:0.5;" width="106" x="211.125" y="1198.5732"/><text fill="#000000" font-family="sans-serif" font-size="12" lengthAdjust="spacing" textLength="86" x="221.125" y="1219.7119">Spawnplayers</text><rect fill="#F1F1F1" height="33.9688" rx="12.5" ry="12.5" style="stroke:#181818;stroke-width:0.5;" width="150" x="189.125" y="1296.5107"/><text fill="#000000" font-family="sans-serif" font-size="12" lengthAdjust="spacing" textLength="130" x="199.125" y="1317.6494">verify keyboard input</text><rect fill="#F1F1F1" height="33.9688" rx="12.5" ry="12.5" style="stroke:#181818;stroke-width:0.5;" width="265" x="131.625" y="1350.4795"/><text fill="#000000" font-family="sans-serif" font-size="12" lengthAdjust="spacing" textLength="245" x="141.625" y="1371.6182">Send captured keyboard to ALL players</text><rect fill="#F1F1F1" height="33.9688" rx="12.5" ry="12.5" style="stroke:#181818;stroke-width:0.5;" width="179" x="174.625" y="1469.6118"/><text fill="#000000" font-family="sans-serif" font-size="12" lengthAdjust="spacing" textLength="159" x="184.625" y="1490.7505">wait for all player threads</text><rect fill="#F1F1F1" height="33.9688" rx="12.5" ry="12.5" style="stroke:#181818;stroke-width:0.5;" width="129" x="199.625" y="1611.5806"/><text fill="#000000" font-family="sans-serif" font-size="12" lengthAdjust="spacing" textLength="109" x="209.625" y="1632.7192">isRunning is false</text><polygon fill="#F1F1F1" points="203.625,1567.5806,324.625,1567.5806,336.625,1579.5806,324.625,1591.5806,203.625,1591.5806,191.625,1579.5806,203.625,1567.5806" style="stroke:#181818;stroke-width:0.5;"/><text fill="#000000" font-family="sans-serif" font-size="11" lengthAdjust="spacing" textLength="121" x="203.625" y="1583.3887">player is terminated?</text><polygon fill="#F1F1F1" points="264.125,1665.5493,276.125,1677.5493,264.125,1689.5493,252.125,1677.5493,264.125,1665.5493" style="stroke:#181818;stroke-width:0.5;"/><polygon fill="#F1F1F1" points="264.125,1523.5806,276.125,1535.5806,264.125,1547.5806,252.125,1535.5806,264.125,1523.5806" style="stroke:#181818;stroke-width:0.5;"/><polygon fill="#F1F1F1" points="107.125,1709.5493,421.125,1709.5493,433.125,1721.5493,421.125,1733.5493,107.125,1733.5493,95.125,1721.5493,107.125,1709.5493" style="stroke:#181818;stroke-width:0.5;"/><text fill="#000000" font-family="sans-serif" font-size="11" lengthAdjust="spacing" textLength="306" x="111.125" y="1725.3574">(more player available?) || (any player is terminated?)</text><rect fill="#F1F1F1" height="33.9688" rx="12.5" ry="12.5" style="stroke:#181818;stroke-width:0.5;" width="165" x="181.625" y="1753.5493"/><text fill="#000000" font-family="sans-serif" font-size="12" lengthAdjust="spacing" textLength="145" x="191.625" y="1774.688">clear Message channel</text><polygon fill="none" points="159.625,1841.5181,267.625,1841.5181,274.625,1863.8149,368.625,1863.8149,368.625,2000.7524,159.625,2000.7524,159.625,1841.5181" style="stroke:#000000;stroke-width:1.5;"/><line style="stroke:#000000;stroke-width:1.5;" x1="159.625" x2="274.625" y1="1863.8149" y2="1863.8149"/><text fill="#000000" font-family="sans-serif" font-size="14" lengthAdjust="spacing" textLength="102" x="163.625" y="1856.5132">Snake::update</text><rect fill="#F1F1F1" height="33.9688" rx="12.5" ry="12.5" style="stroke:#181818;stroke-width:0.5;" width="189" x="169.625" y="1877.8149"/><text fill="#000000" font-family="sans-serif" font-size="12" lengthAdjust="spacing" textLength="169" x="179.625" y="1898.9536">Move Head to new position</text><rect fill="#F1F1F1" height="33.9688" rx="12.5" ry="12.5" style="stroke:#181818;stroke-width:0.5;" width="189" x="169.625" y="1946.7837"/><text fill="#000000" font-family="sans-serif" font-size="12" lengthAdjust="spacing" textLength="169" x="179.625" y="1967.9224">follow body to new position</text><polygon fill="#F1F1F1" points="264.125,1807.5181,276.125,1819.5181,264.125,1831.5181,252.125,1819.5181,264.125,1807.5181" style="stroke:#181818;stroke-width:0.5;"/><polygon fill="#F1F1F1" points="199.625,2020.7524,328.625,2020.7524,340.625,2032.7524,328.625,2044.7524,199.625,2044.7524,187.625,2032.7524,199.625,2020.7524" style="stroke:#181818;stroke-width:0.5;"/><text fill="#000000" font-family="sans-serif" font-size="11" lengthAdjust="spacing" textLength="129" x="199.625" y="2036.5605">more player available?</text><rect fill="#F1F1F1" height="33.9688" rx="12.5" ry="12.5" style="stroke:#181818;stroke-width:0.5;" width="115" x="206.625" y="2152.7524"/><text fill="#000000" font-family="sans-serif" font-size="12" lengthAdjust="spacing" textLength="95" x="216.625" y="2173.8911">place new food</text><polygon fill="#F1F1F1" points="195.625,2108.7524,332.625,2108.7524,344.625,2120.7524,332.625,2132.7524,195.625,2132.7524,183.625,2120.7524,195.625,2108.7524" style="stroke:#181818;stroke-width:0.5;"/><text fill="#000000" font-family="sans-serif" font-size="11" lengthAdjust="spacing" textLength="137" x="195.625" y="2124.5605">player has catched food</text><polygon fill="#F1F1F1" points="264.125,2206.7212,276.125,2218.7212,264.125,2230.7212,252.125,2218.7212,264.125,2206.7212" style="stroke:#181818;stroke-width:0.5;"/><polygon fill="#F1F1F1" points="264.125,2064.7524,276.125,2076.7524,264.125,2088.7524,252.125,2076.7524,264.125,2064.7524" style="stroke:#181818;stroke-width:0.5;"/><polygon fill="#F1F1F1" points="96.125,2250.7212,432.125,2250.7212,444.125,2262.7212,432.125,2274.7212,96.125,2274.7212,84.125,2262.7212,96.125,2250.7212" style="stroke:#181818;stroke-width:0.5;"/><text fill="#000000" font-family="sans-serif" font-size="11" lengthAdjust="spacing" textLength="328" x="100.125" y="2266.5293">(more player available?) || (any player has catched food?)</text><rect fill="#F1F1F1" height="33.9688" rx="12.5" ry="12.5" style="stroke:#181818;stroke-width:0.5;" width="109" x="209.625" y="2294.7212"/><text fill="#000000" font-family="sans-serif" font-size="12" lengthAdjust="spacing" textLength="89" x="219.625" y="2315.8599">start renderer</text><rect fill="#F1F1F1" height="33.9688" rx="12.5" ry="12.5" style="stroke:#181818;stroke-width:0.5;" width="94" x="217.125" y="2348.6899"/><text fill="#000000" font-family="sans-serif" font-size="12" lengthAdjust="spacing" textLength="74" x="227.125" y="2369.8286">render food</text><rect fill="#F1F1F1" height="33.9688" rx="12.5" ry="12.5" style="stroke:#181818;stroke-width:0.5;" width="204" x="162.125" y="2446.6587"/><text fill="#000000" font-family="sans-serif" font-size="12" lengthAdjust="spacing" textLength="184" x="172.125" y="2467.7974">render snake for every player</text><polygon fill="#F1F1F1" points="264.125,2402.6587,276.125,2414.6587,264.125,2426.6587,252.125,2414.6587,264.125,2402.6587" style="stroke:#181818;stroke-width:0.5;"/><polygon fill="#F1F1F1" points="199.625,2500.6274,328.625,2500.6274,340.625,2512.6274,328.625,2524.6274,199.625,2524.6274,187.625,2512.6274,199.625,2500.6274" style="stroke:#181818;stroke-width:0.5;"/><text fill="#000000" font-family="sans-serif" font-size="11" lengthAdjust="spacing" textLength="129" x="199.625" y="2516.4355">more player available?</text><rect fill="#F1F1F1" height="33.9688" rx="12.5" ry="12.5" style="stroke:#181818;stroke-width:0.5;" width="321" x="103.625" y="2544.6274"/><text fill="#000000" font-family="sans-serif" font-size="12" lengthAdjust="spacing" textLength="301" x="113.625" y="2565.7661">update window title with current game statistics</text><rect fill="#F1F1F1" height="33.9688" rx="12.5" ry="12.5" style="stroke:#181818;stroke-width:0.5;" width="194" x="167.125" y="2598.5962"/><text fill="#000000" font-family="sans-serif" font-size="12" lengthAdjust="spacing" textLength="174" x="177.125" y="2619.7349">calculate current SDL_Delay</text><polygon fill="#F1F1F1" points="233.625,1154.5732,294.625,1154.5732,306.625,1166.5732,294.625,1178.5732,233.625,1178.5732,221.625,1166.5732,233.625,1154.5732" style="stroke:#181818;stroke-width:0.5;"/><text fill="#000000" font-family="sans-serif" font-size="11" lengthAdjust="spacing" textLength="61" x="233.625" y="1170.3813">isRunning?</text><ellipse cx="61.125" cy="1209.5732" fill="none" rx="11" ry="11" style="stroke:#222222;stroke-width:1.0;"/><ellipse cx="61.125" cy="1209.5732" fill="#222222" rx="6" ry="6" style="stroke:#111111;stroke-width:1.0;"/><line style="stroke:#000000;stroke-width:1.5;" x1="15" x2="15" y1="12.7451" y2="2654.5649"/><rect fill="#FFE4C4" height="2641.8198" style="stroke:#FFE4C4;stroke-width:1.0;" width="424" x="669" y="12.7451"/><rect fill="#F1F1F1" height="33.9688" rx="12.5" ry="12.5" style="stroke:#181818;stroke-width:0.5;" width="127" x="699" y="1252.542"/><text fill="#000000" font-family="sans-serif" font-size="12" lengthAdjust="spacing" textLength="107" x="709" y="1273.6807">wait for message</text><path d="M870,1419.3462 L870,1435.479 L850,1439.479 L870,1443.479 L870,1459.6118 A0,0 0 0 0 870,1459.6118 L1088,1459.6118 A0,0 0 0 0 1088,1459.6118 L1088,1429.3462 L1078,1419.3462 L870,1419.3462 A0,0 0 0 0 870,1419.3462 " fill="#FEFFDD" style="stroke:#181818;stroke-width:0.5;"/><path d="M1078,1419.3462 L1078,1429.3462 L1088,1429.3462 L1078,1419.3462 " fill="#FEFFDD" style="stroke:#181818;stroke-width:0.5;"/><text fill="#000000" font-family="sans-serif" font-size="13" lengthAdjust="spacing" textLength="197" x="876" y="1436.4131">for virtual player the automatic</text><text fill="#000000" font-family="sans-serif" font-size="13" lengthAdjust="spacing" textLength="147" x="876" y="1451.5459">route planning is called</text><rect fill="#F1F1F1" height="33.9688" rx="12.5" ry="12.5" style="stroke:#181818;stroke-width:0.5;" width="175" x="675" y="1422.4946"/><text fill="#000000" font-family="sans-serif" font-size="12" lengthAdjust="spacing" textLength="155" x="685" y="1443.6333">Controller::HandleInput()</text><line style="stroke:#000000;stroke-width:1.5;" x1="669" x2="669" y1="12.7451" y2="2654.5649"/><line style="stroke:#000000;stroke-width:1.5;" x1="1093" x2="1093" y1="12.7451" y2="2654.5649"/><line style="stroke:#181818;stroke-width:1.0;" x1="93.5" x2="93.5" y1="146.667" y2="181.667"/><polygon fill="#181818" points="89.5,171.667,93.5,181.667,97.5,171.667,93.5,175.667" style="stroke:#181818;stroke-width:1.0;"/><line style="stroke:#181818;stroke-width:1.0;" x1="375.75" x2="312.5" y1="124.6982" y2="124.6982"/><line style="stroke:#181818;stroke-width:1.0;" x1="312.5" x2="312.5" y1="124.6982" y2="146.6982"/><polygon fill="#181818" points="308.5,136.6982,312.5,146.6982,316.5,136.6982,312.5,140.6982" style="stroke:#181818;stroke-width:1.0;"/><line style="stroke:#181818;stroke-width:1.0;" x1="493.75" x2="557" y1="124.6982" y2="124.6982"/><line style="stroke:#181818;stroke-width:1.0;" x1="557" x2="557" y1="124.6982" y2="146.6982"/><polygon fill="#181818" points="553,136.6982,557,146.6982,561,136.6982,557,140.6982" style="stroke:#181818;stroke-width:1.0;"/><line style="stroke:#181818;stroke-width:1.0;" x1="312.5" x2="312.5" y1="180.667" y2="198.667"/><line style="stroke:#181818;stroke-width:1.0;" x1="312.5" x2="422.75" y1="198.667" y2="198.667"/><polygon fill="#181818" points="412.75,194.667,422.75,198.667,412.75,202.667,416.75,198.667" style="stroke:#181818;stroke-width:1.0;"/><line style="stroke:#181818;stroke-width:1.0;" x1="557" x2="557" y1="180.667" y2="198.667"/><line style="stroke:#181818;stroke-width:1.0;" x1="557" x2="446.75" y1="198.667" y2="198.667"/><polygon fill="#181818" points="456.75,194.667,446.75,198.667,456.75,202.667,452.75,198.667" style="stroke:#181818;stroke-width:1.0;"/><line style="stroke:#181818;stroke-width:1.0;" x1="173.625" x2="93.5" y1="90.6982" y2="90.6982"/><line style="stroke:#181818;stroke-width:1.0;" x1="93.5" x2="93.5" y1="90.6982" y2="112.6982"/><polygon fill="#181818" points="89.5,102.6982,93.5,112.6982,97.5,102.6982,93.5,106.6982" style="stroke:#181818;stroke-width:1.0;"/><line style="stroke:#181818;stroke-width:1.0;" x1="354.625" x2="434.75" y1="90.6982" y2="90.6982"/><line style="stroke:#181818;stroke-width:1.0;" x1="434.75" x2="434.75" y1="90.6982" y2="112.6982"/><polygon fill="#181818" points="430.75,102.6982,434.75,112.6982,438.75,102.6982,434.75,106.6982" style="stroke:#181818;stroke-width:1.0;"/><line style="stroke:#181818;stroke-width:1.0;" x1="434.75" x2="434.75" y1="210.667" y2="215.667"/><line style="stroke:#181818;stroke-width:1.0;" x1="434.75" x2="264.125" y1="215.667" y2="215.667"/><line style="stroke:#181818;stroke-width:1.0;" x1="264.125" x2="264.125" y1="215.667" y2="256.9639"/><polygon fill="#181818" points="260.125,246.9639,264.125,256.9639,268.125,246.9639,264.125,250.9639" style="stroke:#181818;stroke-width:1.0;"/><line style="stroke:#181818;stroke-width:1.0;" x1="264.125" x2="264.125" y1="58.6982" y2="78.6982"/><polygon fill="#181818" points="260.125,68.6982,264.125,78.6982,268.125,68.6982,264.125,72.6982" style="stroke:#181818;stroke-width:1.0;"/><line style="stroke:#181818;stroke-width:1.0;" x1="264.125" x2="264.125" y1="290.9326" y2="325.9326"/><polygon fill="#181818" points="260.125,315.9326,264.125,325.9326,268.125,315.9326,264.125,319.9326" style="stroke:#181818;stroke-width:1.0;"/><line style="stroke:#181818;stroke-width:1.0;" x1="264.125" x2="264.125" y1="359.9014" y2="394.9014"/><polygon fill="#181818" points="260.125,384.9014,264.125,394.9014,268.125,384.9014,264.125,388.9014" style="stroke:#181818;stroke-width:1.0;"/><line style="stroke:#181818;stroke-width:1.0;" x1="217.125" x2="173.875" y1="717.6982" y2="717.6982"/><line style="stroke:#181818;stroke-width:1.0;" x1="173.875" x2="173.875" y1="717.6982" y2="739.6982"/><polygon fill="#181818" points="169.875,729.6982,173.875,739.6982,177.875,729.6982,173.875,733.6982" style="stroke:#181818;stroke-width:1.0;"/><line style="stroke:#181818;stroke-width:1.0;" x1="311.125" x2="354.375" y1="717.6982" y2="717.6982"/><line style="stroke:#181818;stroke-width:1.0;" x1="354.375" x2="354.375" y1="717.6982" y2="739.6982"/><polygon fill="#181818" points="350.375,729.6982,354.375,739.6982,358.375,729.6982,354.375,733.6982" style="stroke:#181818;stroke-width:1.0;"/><line style="stroke:#181818;stroke-width:1.0;" x1="173.875" x2="173.875" y1="773.667" y2="791.667"/><line style="stroke:#181818;stroke-width:1.0;" x1="173.875" x2="252.125" y1="791.667" y2="791.667"/><polygon fill="#181818" points="242.125,787.667,252.125,791.667,242.125,795.667,246.125,791.667" style="stroke:#181818;stroke-width:1.0;"/><line style="stroke:#181818;stroke-width:1.0;" x1="354.375" x2="354.375" y1="773.667" y2="791.667"/><line style="stroke:#181818;stroke-width:1.0;" x1="354.375" x2="276.125" y1="791.667" y2="791.667"/><polygon fill="#181818" points="286.125,787.667,276.125,791.667,286.125,795.667,282.125,791.667" style="stroke:#181818;stroke-width:1.0;"/><line style="stroke:#181818;stroke-width:1.0;" x1="264.125" x2="264.125" y1="670.6982" y2="705.6982"/><polygon fill="#181818" points="260.125,695.6982,264.125,705.6982,268.125,695.6982,264.125,699.6982" style="stroke:#181818;stroke-width:1.0;"/><line style="stroke:#181818;stroke-width:1.0;" x1="264.125" x2="264.125" y1="565.4326" y2="636.7295"/><polygon fill="#181818" points="260.125,626.7295,264.125,636.7295,268.125,626.7295,264.125,630.7295" style="stroke:#181818;stroke-width:1.0;"/><line style="stroke:#181818;stroke-width:1.0;" x1="221.125" x2="181.125" y1="870.667" y2="870.667"/><line style="stroke:#181818;stroke-width:1.0;" x1="181.125" x2="181.125" y1="870.667" y2="892.667"/><polygon fill="#181818" points="177.125,882.667,181.125,892.667,185.125,882.667,181.125,886.667" style="stroke:#181818;stroke-width:1.0;"/><line style="stroke:#181818;stroke-width:1.0;" x1="307.125" x2="347.125" y1="870.667" y2="870.667"/><line style="stroke:#181818;stroke-width:1.0;" x1="347.125" x2="347.125" y1="870.667" y2="892.667"/><polygon fill="#181818" points="343.125,882.667,347.125,892.667,351.125,882.667,347.125,886.667" style="stroke:#181818;stroke-width:1.0;"/><line style="stroke:#181818;stroke-width:1.0;" x1="181.125" x2="181.125" y1="926.6357" y2="944.6357"/><line style="stroke:#181818;stroke-width:1.0;" x1="181.125" x2="252.125" y1="944.6357" y2="944.6357"/><polygon fill="#181818" points="242.125,940.6357,252.125,944.6357,242.125,948.6357,246.125,944.6357" style="stroke:#181818;stroke-width:1.0;"/><line style="stroke:#181818;stroke-width:1.0;" x1="347.125" x2="347.125" y1="926.6357" y2="944.6357"/><line style="stroke:#181818;stroke-width:1.0;" x1="347.125" x2="276.125" y1="944.6357" y2="944.6357"/><polygon fill="#181818" points="286.125,940.6357,276.125,944.6357,286.125,948.6357,282.125,944.6357" style="stroke:#181818;stroke-width:1.0;"/><line style="stroke:#181818;stroke-width:1.0;" x1="264.125" x2="264.125" y1="803.667" y2="858.667"/><polygon fill="#181818" points="260.125,848.667,264.125,858.667,268.125,848.667,264.125,852.667" style="stroke:#181818;stroke-width:1.0;"/><line style="stroke:#181818;stroke-width:1.0;" x1="264.125" x2="264.125" y1="956.6357" y2="1011.6357"/><polygon fill="#181818" points="260.125,1001.6357,264.125,1011.6357,268.125,1001.6357,264.125,1005.6357" style="stroke:#181818;stroke-width:1.0;"/><line style="stroke:#181818;stroke-width:1.0;" x1="264.125" x2="264.125" y1="1045.6045" y2="1080.6045"/><polygon fill="#181818" points="260.125,1070.6045,264.125,1080.6045,268.125,1070.6045,264.125,1074.6045" style="stroke:#181818;stroke-width:1.0;"/><line style="stroke:#181818;stroke-width:1.0;" x1="264.125" x2="264.125" y1="428.8701" y2="531.4639"/><polygon fill="#181818" points="260.125,521.4639,264.125,531.4639,268.125,521.4639,264.125,525.4639" style="stroke:#181818;stroke-width:1.0;"/><line style="stroke:#181818;stroke-width:1.0;" x1="264.125" x2="264.125" y1="1330.4795" y2="1350.4795"/><polygon fill="#181818" points="260.125,1340.4795,264.125,1350.4795,268.125,1340.4795,264.125,1344.4795" style="stroke:#181818;stroke-width:1.0;"/><line style="stroke:#181818;stroke-width:1.0;" x1="264.125" x2="264.125" y1="1591.5806" y2="1611.5806"/><polygon fill="#181818" points="260.125,1601.5806,264.125,1611.5806,268.125,1601.5806,264.125,1605.5806" style="stroke:#181818;stroke-width:1.0;"/><line style="stroke:#181818;stroke-width:1.0;" x1="336.625" x2="348.625" y1="1579.5806" y2="1579.5806"/><polygon fill="#181818" points="344.625,1618.5649,348.625,1628.5649,352.625,1618.5649,348.625,1622.5649" style="stroke:#181818;stroke-width:1.0;"/><line style="stroke:#181818;stroke-width:1.0;" x1="348.625" x2="348.625" y1="1579.5806" y2="1677.5493"/><line style="stroke:#181818;stroke-width:1.0;" x1="348.625" x2="276.125" y1="1677.5493" y2="1677.5493"/><polygon fill="#181818" points="286.125,1673.5493,276.125,1677.5493,286.125,1681.5493,282.125,1677.5493" style="stroke:#181818;stroke-width:1.0;"/><line style="stroke:#181818;stroke-width:1.0;" x1="264.125" x2="264.125" y1="1645.5493" y2="1665.5493"/><polygon fill="#181818" points="260.125,1655.5493,264.125,1665.5493,268.125,1655.5493,264.125,1659.5493" style="stroke:#181818;stroke-width:1.0;"/><line style="stroke:#181818;stroke-width:1.0;" x1="264.125" x2="264.125" y1="1547.5806" y2="1567.5806"/><polygon fill="#181818" points="260.125,1557.5806,264.125,1567.5806,268.125,1557.5806,264.125,1561.5806" style="stroke:#181818;stroke-width:1.0;"/><line style="stroke:#181818;stroke-width:1.0;" x1="433.125" x2="445.125" y1="1721.5493" y2="1721.5493"/><polygon fill="#181818" points="441.125,1638.5649,445.125,1628.5649,449.125,1638.5649,445.125,1634.5649" style="stroke:#181818;stroke-width:1.0;"/><line style="stroke:#181818;stroke-width:1.0;" x1="445.125" x2="445.125" y1="1535.5806" y2="1721.5493"/><line style="stroke:#181818;stroke-width:1.0;" x1="445.125" x2="276.125" y1="1535.5806" y2="1535.5806"/><polygon fill="#181818" points="286.125,1531.5806,276.125,1535.5806,286.125,1539.5806,282.125,1535.5806" style="stroke:#181818;stroke-width:1.0;"/><line style="stroke:#181818;stroke-width:1.0;" x1="264.125" x2="264.125" y1="1689.5493" y2="1709.5493"/><polygon fill="#181818" points="260.125,1699.5493,264.125,1709.5493,268.125,1699.5493,264.125,1703.5493" style="stroke:#181818;stroke-width:1.0;"/><line style="stroke:#181818;stroke-width:1.0;" x1="264.125" x2="264.125" y1="1503.5806" y2="1523.5806"/><polygon fill="#181818" points="260.125,1513.5806,264.125,1523.5806,268.125,1513.5806,264.125,1517.5806" style="stroke:#181818;stroke-width:1.0;"/><line style="stroke:#181818;stroke-width:1.0;" x1="264.125" x2="264.125" y1="1733.5493" y2="1753.5493"/><polygon fill="#181818" points="260.125,1743.5493,264.125,1753.5493,268.125,1743.5493,264.125,1747.5493" style="stroke:#181818;stroke-width:1.0;"/><line style="stroke:#181818;stroke-width:1.0;" x1="264.125" x2="264.125" y1="1911.7837" y2="1946.7837"/><polygon fill="#181818" points="260.125,1936.7837,264.125,1946.7837,268.125,1936.7837,264.125,1940.7837" style="stroke:#181818;stroke-width:1.0;"/><line style="stroke:#181818;stroke-width:1.0;" x1="264.125" x2="264.125" y1="1831.5181" y2="1877.8149"/><polygon fill="#181818" points="260.125,1867.8149,264.125,1877.8149,268.125,1867.8149,264.125,1871.8149" style="stroke:#181818;stroke-width:1.0;"/><line style="stroke:#181818;stroke-width:1.0;" x1="340.625" x2="380.625" y1="2032.7524" y2="2032.7524"/><polygon fill="#181818" points="376.625,1931.1353,380.625,1921.1353,384.625,1931.1353,380.625,1927.1353" style="stroke:#181818;stroke-width:1.0;"/><line style="stroke:#181818;stroke-width:1.0;" x1="380.625" x2="380.625" y1="1819.5181" y2="2032.7524"/><line style="stroke:#181818;stroke-width:1.0;" x1="380.625" x2="276.125" y1="1819.5181" y2="1819.5181"/><polygon fill="#181818" points="286.125,1815.5181,276.125,1819.5181,286.125,1823.5181,282.125,1819.5181" style="stroke:#181818;stroke-width:1.0;"/><line style="stroke:#181818;stroke-width:1.0;" x1="264.125" x2="264.125" y1="1980.7524" y2="2020.7524"/><polygon fill="#181818" points="260.125,2010.7524,264.125,2020.7524,268.125,2010.7524,264.125,2014.7524" style="stroke:#181818;stroke-width:1.0;"/><line style="stroke:#181818;stroke-width:1.0;" x1="264.125" x2="264.125" y1="1787.5181" y2="1807.5181"/><polygon fill="#181818" points="260.125,1797.5181,264.125,1807.5181,268.125,1797.5181,264.125,1801.5181" style="stroke:#181818;stroke-width:1.0;"/><line style="stroke:#181818;stroke-width:1.0;" x1="264.125" x2="264.125" y1="2132.7524" y2="2152.7524"/><polygon fill="#181818" points="260.125,2142.7524,264.125,2152.7524,268.125,2142.7524,264.125,2146.7524" style="stroke:#181818;stroke-width:1.0;"/><line style="stroke:#181818;stroke-width:1.0;" x1="344.625" x2="356.625" y1="2120.7524" y2="2120.7524"/><polygon fill="#181818" points="352.625,2159.7368,356.625,2169.7368,360.625,2159.7368,356.625,2163.7368" style="stroke:#181818;stroke-width:1.0;"/><line style="stroke:#181818;stroke-width:1.0;" x1="356.625" x2="356.625" y1="2120.7524" y2="2218.7212"/><line style="stroke:#181818;stroke-width:1.0;" x1="356.625" x2="276.125" y1="2218.7212" y2="2218.7212"/><polygon fill="#181818" points="286.125,2214.7212,276.125,2218.7212,286.125,2222.7212,282.125,2218.7212" style="stroke:#181818;stroke-width:1.0;"/><line style="stroke:#181818;stroke-width:1.0;" x1="264.125" x2="264.125" y1="2186.7212" y2="2206.7212"/><polygon fill="#181818" points="260.125,2196.7212,264.125,2206.7212,268.125,2196.7212,264.125,2200.7212" style="stroke:#181818;stroke-width:1.0;"/><line style="stroke:#181818;stroke-width:1.0;" x1="264.125" x2="264.125" y1="2088.7524" y2="2108.7524"/><polygon fill="#181818" points="260.125,2098.7524,264.125,2108.7524,268.125,2098.7524,264.125,2102.7524" style="stroke:#181818;stroke-width:1.0;"/><line style="stroke:#181818;stroke-width:1.0;" x1="444.125" x2="456.125" y1="2262.7212" y2="2262.7212"/><polygon fill="#181818" points="452.125,2179.7368,456.125,2169.7368,460.125,2179.7368,456.125,2175.7368" style="stroke:#181818;stroke-width:1.0;"/><line style="stroke:#181818;stroke-width:1.0;" x1="456.125" x2="456.125" y1="2076.7524" y2="2262.7212"/><line style="stroke:#181818;stroke-width:1.0;" x1="456.125" x2="276.125" y1="2076.7524" y2="2076.7524"/><polygon fill="#181818" points="286.125,2072.7524,276.125,2076.7524,286.125,2080.7524,282.125,2076.7524" style="stroke:#181818;stroke-width:1.0;"/><line style="stroke:#181818;stroke-width:1.0;" x1="264.125" x2="264.125" y1="2230.7212" y2="2250.7212"/><polygon fill="#181818" points="260.125,2240.7212,264.125,2250.7212,268.125,2240.7212,264.125,2244.7212" style="stroke:#181818;stroke-width:1.0;"/><line style="stroke:#181818;stroke-width:1.0;" x1="264.125" x2="264.125" y1="2044.7524" y2="2064.7524"/><polygon fill="#181818" points="260.125,2054.7524,264.125,2064.7524,268.125,2054.7524,264.125,2058.7524" style="stroke:#181818;stroke-width:1.0;"/><line style="stroke:#181818;stroke-width:1.0;" x1="264.125" x2="264.125" y1="2274.7212" y2="2294.7212"/><polygon fill="#181818" points="260.125,2284.7212,264.125,2294.7212,268.125,2284.7212,264.125,2288.7212" style="stroke:#181818;stroke-width:1.0;"/><line style="stroke:#181818;stroke-width:1.0;" x1="264.125" x2="264.125" y1="2328.6899" y2="2348.6899"/><polygon fill="#181818" points="260.125,2338.6899,264.125,2348.6899,268.125,2338.6899,264.125,2342.6899" style="stroke:#181818;stroke-width:1.0;"/><line style="stroke:#181818;stroke-width:1.0;" x1="264.125" x2="264.125" y1="2426.6587" y2="2446.6587"/><polygon fill="#181818" points="260.125,2436.6587,264.125,2446.6587,268.125,2436.6587,264.125,2440.6587" style="stroke:#181818;stroke-width:1.0;"/><line style="stroke:#181818;stroke-width:1.0;" x1="340.625" x2="378.125" y1="2512.6274" y2="2512.6274"/><polygon fill="#181818" points="374.125,2473.6431,378.125,2463.6431,382.125,2473.6431,378.125,2469.6431" style="stroke:#181818;stroke-width:1.0;"/><line style="stroke:#181818;stroke-width:1.0;" x1="378.125" x2="378.125" y1="2414.6587" y2="2512.6274"/><line style="stroke:#181818;stroke-width:1.0;" x1="378.125" x2="276.125" y1="2414.6587" y2="2414.6587"/><polygon fill="#181818" points="286.125,2410.6587,276.125,2414.6587,286.125,2418.6587,282.125,2414.6587" style="stroke:#181818;stroke-width:1.0;"/><line style="stroke:#181818;stroke-width:1.0;" x1="264.125" x2="264.125" y1="2480.6274" y2="2500.6274"/><polygon fill="#181818" points="260.125,2490.6274,264.125,2500.6274,268.125,2490.6274,264.125,2494.6274" style="stroke:#181818;stroke-width:1.0;"/><line style="stroke:#181818;stroke-width:1.0;" x1="264.125" x2="264.125" y1="2382.6587" y2="2402.6587"/><polygon fill="#181818" points="260.125,2392.6587,264.125,2402.6587,268.125,2392.6587,264.125,2396.6587" style="stroke:#181818;stroke-width:1.0;"/><line style="stroke:#181818;stroke-width:1.0;" x1="264.125" x2="264.125" y1="2524.6274" y2="2544.6274"/><polygon fill="#181818" points="260.125,2534.6274,264.125,2544.6274,268.125,2534.6274,264.125,2538.6274" style="stroke:#181818;stroke-width:1.0;"/><line style="stroke:#181818;stroke-width:1.0;" x1="264.125" x2="264.125" y1="2578.5962" y2="2598.5962"/><polygon fill="#181818" points="260.125,2588.5962,264.125,2598.5962,268.125,2588.5962,264.125,2592.5962" style="stroke:#181818;stroke-width:1.0;"/><line style="stroke:#181818;stroke-width:1.0;" x1="264.125" x2="264.125" y1="1178.5732" y2="1198.5732"/><polygon fill="#181818" points="260.125,1188.5732,264.125,1198.5732,268.125,1188.5732,264.125,1192.5732" style="stroke:#181818;stroke-width:1.0;"/><line style="stroke:#181818;stroke-width:1.0;" x1="264.125" x2="264.125" y1="2632.5649" y2="2642.5649"/><line style="stroke:#181818;stroke-width:1.0;" x1="264.125" x2="601.625" y1="2642.5649" y2="2642.5649"/><polygon fill="#181818" points="597.625,1912.6157,601.625,1902.6157,605.625,1912.6157,601.625,1908.6157" style="stroke:#181818;stroke-width:1.0;"/><line style="stroke:#181818;stroke-width:1.0;" x1="601.625" x2="601.625" y1="1166.5732" y2="2642.5649"/><line style="stroke:#181818;stroke-width:1.0;" x1="601.625" x2="306.625" y1="1166.5732" y2="1166.5732"/><polygon fill="#181818" points="316.625,1162.5732,306.625,1166.5732,316.625,1170.5732,312.625,1166.5732" style="stroke:#181818;stroke-width:1.0;"/><line style="stroke:#181818;stroke-width:1.0;" x1="221.625" x2="61.125" y1="1166.5732" y2="1166.5732"/><line style="stroke:#181818;stroke-width:1.0;" x1="61.125" x2="61.125" y1="1166.5732" y2="1198.5732"/><polygon fill="#181818" points="57.125,1188.5732,61.125,1198.5732,65.125,1188.5732,61.125,1192.5732" style="stroke:#181818;stroke-width:1.0;"/><line style="stroke:#181818;stroke-width:1.0;" x1="264.125" x2="264.125" y1="1114.5732" y2="1154.5732"/><polygon fill="#181818" points="260.125,1144.5732,264.125,1154.5732,268.125,1144.5732,264.125,1148.5732" style="stroke:#181818;stroke-width:1.0;"/><line style="stroke:#181818;stroke-width:1.0;" x1="264.125" x2="264.125" y1="1232.542" y2="1237.542"/><line style="stroke:#181818;stroke-width:1.0;" x1="264.125" x2="762.5" y1="1237.542" y2="1237.542"/><line style="stroke:#181818;stroke-width:1.0;" x1="762.5" x2="762.5" y1="1237.542" y2="1252.542"/><polygon fill="#181818" points="758.5,1242.542,762.5,1252.542,766.5,1242.542,762.5,1246.542" style="stroke:#181818;stroke-width:1.0;"/><line style="stroke:#000000;stroke-width:1.5;stroke-dasharray:1.0,3.0;" x1="264.125" x2="264.125" y1="1384.4482" y2="1407.4946"/><line style="stroke:#000000;stroke-width:1.5;stroke-dasharray:1.0,3.0;" x1="264.125" x2="762.5" y1="1407.4946" y2="1407.4946"/><line style="stroke:#000000;stroke-width:1.5;stroke-dasharray:1.0,3.0;" x1="762.5" x2="762.5" y1="1407.4946" y2="1422.4946"/><polygon fill="#000000" points="758.5,1412.4946,762.5,1422.4946,766.5,1412.4946,762.5,1416.4946" style="stroke:#000000;stroke-width:1.0;"/><text fill="#000000" font-family="sans-serif" font-size="11" lengthAdjust="spacing" textLength="212" x="268.125" y="1400.9946">packed as Msg and send via Channel</text><text fill="#000000" font-family="sans-serif" font-size="18" lengthAdjust="spacing" textLength="43" x="320.5" y="29.4531">main</text><text fill="#000000" font-family="sans-serif" font-size="18" lengthAdjust="spacing" textLength="128" x="817" y="29.4531">players thread</text><!--MD5=[0c11a7b27acb2e57f5a6bf4e42a31225]
@startuml
|main|
start
if (more than 3 CLI arguments) then
    :print error message;
    stop
else
    if (no CLI argument) then
        :use default filename for config file;
    else
        :get filename from CLI argument;
    endif
endif
package Renderer::instantiation {
    :SDL_Init();
    :SDL_CreateWindow();
    :SDL_CreateRenderer();
}
package Game::instantiation {
    package Player::instantiation {
        :create Player;
        package Snake::instantiation {
            :place head of snake randomly;
            if (virtualPlayer) then
                :change randomly colour;
            else
                :keep white as colour;
            endif
        }
        if (demoMode) then
            :create VirtualController;
        else
            :create Controller;
        endif            
    }
    :add player to list of players;
    :PlaceFood();
}
while (isRunning?)
    :Spawnplayers;
    |#Bisque|players thread|
    :wait for message;
    detach
    |main|
    :verify keyboard input;
    :Send captured keyboard to ALL players;
    -[#black,dotted]->packed as Msg and send via Channel;
    
    |players thread|
    :Controller::HandleInput();
    note right
        for virtual player the automatic
        route planning is called
    end note
    detach
    |main|
    :wait for all player threads;
    repeat 
        if (player is terminated?) then
            :isRunning is false;
        endif
    repeat while ( (more player available?) || (any player is terminated?) ) 
    :clear Message channel;
    repeat
        package Snake::update {
            :Move Head to new position;
            :follow body to new position;
        }
    repeat while (more player available?) 
    repeat                
        if (player has catched food) then
            :place new food;
        endif
    repeat while ( (more player available?) || (any player has catched food?) ) 
    :start renderer;
    :render food; 
    repeat                
        :render snake for every player;
    repeat while (more player available?)
    :update window title with current game statistics;
    :calculate current SDL_Delay;        
endwhile

stop

@enduml

PlantUML version 1.2022.7(Mon Aug 22 17:01:30 UTC 2022)
(GPL source distribution)
Java Runtime: OpenJDK Runtime Environment
JVM: OpenJDK 64-Bit Server VM
Default Encoding: UTF-8
Language: en
Country: null
--></g></svg>